<?xml version="1.0"?>
<!DOCTYPE svg PUBLIC "-//W3C//DTD SVG 1.1//EN" "http://www.w3.org/Graphics/SVG/1.1/DTD/svg11.dtd">
<svg viewBox="295 278 523 308" preserveAspectRatio="xMinYMin meet" version="1.1" xmlns="http://www.w3.org/2000/svg">
<g class="Resistor">
<line x1="704" y1="352" x2="704" y2="400" stroke="#000000" stroke-width="3" stroke-linecap="round" fill="none" />
<line x1="704" y1="432" x2="704" y2="480" stroke="#000000" stroke-width="3" stroke-linecap="round" fill="none" />
<polyline stroke="#000000" stroke-linecap="round" stroke-linejoin="round" stroke-width="3" fill="none" points="704,400 712,402.6667 704,405.3333 696,408 704,410.6667 " />
<polyline stroke="#000000" stroke-linecap="round" stroke-linejoin="round" stroke-width="3" fill="none" points="704,410.6667 712,413.3333 704,416 696,418.6667 704,421.3333 " />
<polyline stroke="#000000" stroke-linecap="round" stroke-linejoin="round" stroke-width="3" fill="none" points="704,421.3333 712,424 704,426.6667 696,429.3333 704,432 " />
<text x="719" y="421" font-family="sans-serif">10k</text>
</g>
<g class="Zener Diode">
<line x1="576" y1="480" x2="576" y2="425" stroke="#000000" stroke-width="3" stroke-linecap="round" fill="none" />
<line x1="576" y1="406" x2="576" y2="352" stroke="#000000" stroke-width="3" stroke-linecap="round" fill="none" />
<polygon fill="#000000" stroke="none" points="563,425 589,425 576,406 " />
<line x1="563" y1="406" x2="589" y2="406" stroke="#000000" stroke-width="3" stroke-linecap="round" fill="none" />
<line x1="558" y1="419" x2="563" y2="406" stroke="#000000" stroke-width="3" stroke-linecap="round" fill="none" />
<line x1="594" y1="393" x2="589" y2="406" stroke="#000000" stroke-width="3" stroke-linecap="round" fill="none" />
<text x="594" y="421" font-family="sans-serif">Zener (5.1v)</text>
</g>
<g class="Ground">
<line x1="416" y1="448" x2="416" y2="544" stroke="#000000" stroke-width="3" stroke-linecap="round" fill="none" />
<line x1="426" y1="544" x2="406" y2="544" stroke="#000000" stroke-width="3" stroke-linecap="round" fill="none" />
<line x1="422" y1="549" x2="410" y2="549" stroke="#000000" stroke-width="3" stroke-linecap="round" fill="none" />
<line x1="418" y1="554" x2="414" y2="554" stroke="#000000" stroke-width="3" stroke-linecap="round" fill="none" />
<ellipse cx="416" cy="448" rx="4" ry="4" fill="#000000" stroke="none" />
</g>
<g class="Dependent Source">
<line x1="352" y1="416" x2="352" y2="404" stroke="#000000" stroke-width="3" stroke-linecap="round" fill="none" />
<line x1="352" y1="364" x2="352" y2="352" stroke="#000000" stroke-width="3" stroke-linecap="round" fill="none" />
<polygon fill="#FFFFFF" stroke="none" points="352,404 337,384 352,364 367,384 " />
<polygon stroke="#000000" stroke-width="3" fill="none" points="352,404 337,384 352,364 367,384 " />
<text x="347" y="381" font-family="sans-serif">+</text>
<text x="347" y="397" font-family="sans-serif">-</text>
<text x="377" y="389" font-family="sans-serif">Piezo</text>
</g>
<g class="Wire">
<line x1="576" y1="512" x2="576" y2="480" stroke="#000000" stroke-width="1.5" stroke-linecap="round" fill="none" />
<ellipse cx="576" cy="512" rx="4" ry="4" fill="#000000" stroke="none" />
</g>
<g class="Wire">
<line x1="576" y1="352" x2="576" y2="320" stroke="#000000" stroke-width="1.5" stroke-linecap="round" fill="none" />
<ellipse cx="576" cy="320" rx="4" ry="4" fill="#000000" stroke="none" />
</g>
<g class="Wire">
<line x1="352" y1="416" x2="352" y2="448" stroke="#000000" stroke-width="1.5" stroke-linecap="round" fill="none" />
</g>
<g class="Wire">
<line x1="352" y1="448" x2="416" y2="448" stroke="#000000" stroke-width="1.5" stroke-linecap="round" fill="none" />
<ellipse cx="416" cy="448" rx="4" ry="4" fill="#000000" stroke="none" />
</g>
<g class="Wire">
<line x1="480" y1="512" x2="480" y2="448" stroke="#000000" stroke-width="1.5" stroke-linecap="round" fill="none" />
</g>
<g class="Wire">
<line x1="416" y1="448" x2="480" y2="448" stroke="#000000" stroke-width="1.5" stroke-linecap="round" fill="none" />
<ellipse cx="416" cy="448" rx="4" ry="4" fill="#000000" stroke="none" />
</g>
<g class="Wire">
<line x1="576" y1="512" x2="480" y2="512" stroke="#000000" stroke-width="1.5" stroke-linecap="round" fill="none" />
<ellipse cx="576" cy="512" rx="4" ry="4" fill="#000000" stroke="none" />
</g>
<g class="Wire">
<line x1="576" y1="320" x2="672" y2="320" stroke="#000000" stroke-width="1.5" stroke-linecap="round" fill="none" />
<ellipse cx="576" cy="320" rx="4" ry="4" fill="#000000" stroke="none" />
</g>
<g class="Wire">
<line x1="704" y1="320" x2="704" y2="352" stroke="#000000" stroke-width="1.5" stroke-linecap="round" fill="none" />
<ellipse cx="704" cy="320" rx="4" ry="4" fill="#000000" stroke="none" />
</g>
<g class="Wire">
<line x1="576" y1="512" x2="704" y2="512" stroke="#000000" stroke-width="1.5" stroke-linecap="round" fill="none" />
<ellipse cx="576" cy="512" rx="4" ry="4" fill="#000000" stroke="none" />
</g>
<g class="Wire">
<line x1="704" y1="512" x2="704" y2="480" stroke="#000000" stroke-width="1.5" stroke-linecap="round" fill="none" />
</g>
<g class="Port">
<polygon fill="#FFFFFF" stroke="none" points="768,320 778,328 778,352 758,352 758,328 " />
<polygon stroke="#000000" stroke-width="1" fill="none" points="768,320 778,328 778,352 758,352 758,328 " />
<text x="763" y="341" font-family="sans-serif">1</text>
<text x="708" y="370" font-family="sans-serif">Analog input</text>
</g>
<g class="Wire">
<line x1="704" y1="320" x2="768" y2="320" stroke="#000000" stroke-width="1.5" stroke-linecap="round" fill="none" />
<ellipse cx="704" cy="320" rx="4" ry="4" fill="#000000" stroke="none" />
</g>
<g class="Wire">
<line x1="576" y1="320" x2="384" y2="320" stroke="#000000" stroke-width="1.5" stroke-linecap="round" fill="none" />
<ellipse cx="576" cy="320" rx="4" ry="4" fill="#000000" stroke="none" />
</g>
<g class="Wire">
<line x1="352" y1="352" x2="352" y2="320" stroke="#000000" stroke-width="1.5" stroke-linecap="round" fill="none" />
</g>
<g class="Wire">
<line x1="352" y1="320" x2="384" y2="320" stroke="#000000" stroke-width="1.5" stroke-linecap="round" fill="none" />
</g>
<g class="Wire">
<line x1="672" y1="320" x2="704" y2="320" stroke="#000000" stroke-width="1.5" stroke-linecap="round" fill="none" />
<ellipse cx="704" cy="320" rx="4" ry="4" fill="#000000" stroke="none" />
</g>
</svg>
